<svg width="114" height="20" viewBox="0 0 114 20" fill="none" xmlns="http://www.w3.org/2000/svg">
<path d="M10.3739 18.9524C10.2739 19.3333 10.074 19.4286 9.67423 19.5238C8.77465 19.7143 5.27631 19.7143 3.87697 19.7143C1.37815 19.7143 -0.620901 18 0.17872 14.8571C1.47811 10.5714 4.37673 0 4.37673 0H8.07498L4.07688 14.6667C3.97692 14.9524 3.97692 15.2381 3.97692 15.5238C3.87697 16.5714 4.37673 16.8571 5.57617 16.8571H10.4738C10.6738 16.8571 10.9736 16.9524 10.8737 17.4286C10.6738 18 10.3739 18.9524 10.3739 18.9524ZM33.6629 7.80952C34.2626 7.80952 35.462 7.90476 36.1617 8L33.6629 16.9524C33.1631 17.0476 32.0636 17.1429 31.0641 17.1429C29.265 17.1429 28.7652 16.4762 28.8651 15.1429C28.8651 14.8571 28.9651 14.4762 29.165 13.5238C29.265 13.0476 29.6648 11.5238 29.6648 11.5238C30.3644 9.04762 31.364 7.80952 33.6629 7.80952ZM41.9589 0H38.3606L36.9613 5.2381C35.9618 5.14286 35.0622 5.04762 34.4625 5.04762C30.1645 5.04762 27.4658 6.76191 26.2664 11.4286C26.2664 11.4286 25.8666 12.8571 25.7666 13.4286C25.5667 14.2857 25.5667 14.5714 25.5667 14.8571C25.2668 17.619 26.7661 19.8095 30.4644 19.8095C32.1636 19.8095 34.2626 19.5238 36.0617 19.1429C36.6615 18.9524 36.8614 18.8571 36.9613 18.4762L41.9589 0ZM47.5563 7.80952C49.3554 7.80952 49.8552 8.57143 49.6553 10C49.6553 10.4762 49.5554 10.9524 49.3554 11.5238L48.8557 13.5238C48.3559 15.4286 47.2564 17.1429 44.9575 17.1429C43.958 17.1429 42.8585 17.0476 42.4587 16.9524L44.9575 8C45.7571 7.90476 46.9566 7.80952 47.5563 7.80952ZM52.9537 11.4286C53.0537 10.8571 53.1536 10.381 53.2536 9.90476C53.4535 7.04762 52.0542 5.04762 48.3559 5.04762C47.7562 5.04762 46.7567 5.14286 45.7571 5.2381L47.1565 0H43.6581C43.6581 0 39.3602 15.4286 38.5606 18.5714C38.4606 19.0476 39.0603 19.1429 39.1603 19.1429C40.6596 19.5238 42.6586 19.8095 44.3578 19.8095C48.7557 19.8095 51.3545 17.7143 52.5539 13.4286L52.9537 11.4286ZM69.6458 8C71.2451 8 71.8448 8.85714 71.7449 10.2857C71.7449 10.6667 71.6449 11.0476 71.5449 11.4286L70.9452 13.4286C70.2456 15.8095 69.0461 16.9524 67.147 16.9524C65.5478 16.9524 64.8481 16.0952 64.9481 14.6667C64.9481 14.4762 65.048 14.1905 65.2479 13.3333C65.3479 12.8571 65.7477 11.5238 65.7477 11.5238C66.5473 8.85714 68.0466 8 69.6458 8ZM75.3431 10.0952C75.643 7.42857 74.1437 5.14286 70.4455 5.14286C66.2475 5.14286 63.4488 7.33333 62.2493 11.5238C62.2493 11.5238 61.9495 12.6667 61.7496 13.3333C61.5497 13.9048 61.4497 14.4762 61.4497 14.8571C61.2498 17.5238 62.6492 20 66.3474 20C70.5454 20 73.2441 17.9048 74.4436 13.619L75.0433 11.619C75.2432 10.9524 75.2432 10.5714 75.3431 10.0952ZM89.8363 5.80952C90.1361 5.61905 90.1361 5.2381 89.6364 5.2381H86.4379C86.138 5.2381 85.9381 5.33333 85.7382 5.52381L80.0409 11.0476L83.1395 0H79.5412C79.5412 0 75.8429 13.5238 74.2437 19.0476C74.1437 19.3333 74.3436 19.619 74.6435 19.619H77.1423C77.4422 19.619 77.742 19.4286 77.842 19.0476L79.5412 12.9524L82.2399 19.0476C82.3398 19.3333 82.5397 19.5238 82.9396 19.5238H85.9381C86.138 19.5238 86.5378 19.3333 86.3379 18.9524C85.7382 17.7143 82.8396 12 82.8396 12L89.8363 5.80952ZM95.4336 8C96.9329 8 97.6326 8.7619 97.5326 10.2857C97.5326 10.6667 97.4327 10.9524 97.3327 11.2381H91.6354C92.1352 9.33333 93.2347 8 95.4336 8ZM100.531 12.0952C100.731 11.2381 100.831 11.0476 100.931 10.2857C101.131 7.33333 99.7316 5.04762 96.1333 5.04762C92.0352 5.04762 89.2366 6.7619 87.8372 11.5238C87.8372 11.5238 87.6373 12.1905 87.4374 12.9524C87.2375 13.619 87.1376 14.381 87.1376 14.5714C86.8377 18.381 89.5364 19.7143 91.9353 19.7143C94.3342 19.7143 95.5336 19.619 97.3327 19.2381C97.8325 19.1429 97.9325 18.9524 98.0324 18.5714L98.5322 16.4762C97.3327 16.6667 94.9339 16.8571 93.0348 16.8571C91.0357 16.8571 90.3361 15.9048 90.536 14.5714C90.536 14.1905 90.6359 13.9048 90.7359 13.5238H99.4317C99.8316 13.5238 100.031 13.3333 100.131 12.8571C100.331 12.9524 100.431 12.6667 100.531 12.0952ZM112.925 5.61905C111.526 5.2381 109.927 5.14286 108.228 5.14286C105.729 5.14286 102.53 5.90476 102.23 9.33333C102.13 10.5714 102.73 11.7143 103.73 12.381L106.828 14.4762C107.428 14.8571 107.628 15.3333 107.528 15.7143C107.428 16.8571 106.428 17.1429 105.129 17.1429C104.529 17.1429 102.13 17.0476 100.831 16.8571C100.331 16.7619 100.131 17.1429 100.131 17.2381L99.7316 18.8571C99.6317 19.1429 99.8316 19.3333 100.031 19.4286C101.631 19.8095 103.93 19.9048 104.829 19.9048C108.028 19.9048 110.826 18.5714 111.126 15.3333C111.226 14.1905 110.926 13.1429 109.427 12.0952L106.528 10C106.029 9.71429 105.829 9.33333 105.829 8.95238C105.929 7.90476 107.228 7.80952 108.028 7.80952C109.127 7.80952 111.026 7.90476 112.226 8.09524C112.725 8.19048 112.825 7.80952 112.925 7.61905L113.325 6.19048C113.325 6.19048 113.425 5.71429 112.925 5.61905ZM63.5487 5.61905C63.6487 5.2381 63.2489 5.14286 63.1489 5.14286C62.0494 5.14286 60.5501 5.2381 58.9509 6.38095L59.0509 5.90476C59.1508 5.61905 58.9509 5.42857 58.651 5.42857H56.3521C56.0523 5.42857 55.7524 5.61905 55.6525 5.90476C55.6525 5.90476 52.5539 16.9524 51.9542 19.1429C51.8543 19.5238 51.9542 19.8095 52.354 19.8095H54.7529C55.0527 19.8095 55.3526 19.5238 55.4526 19.2381L58.2512 8.95238C60.1503 8.09524 61.3498 8.09524 62.1494 8.09524C62.4492 8.09524 62.7491 7.90476 62.8491 7.61905C63.049 7.42857 63.3488 6.28571 63.5487 5.61905ZM19.8694 7.80952C17.5705 7.80952 16.571 9.33333 15.9712 11.4286L15.2716 14.0952C15.1716 14.4762 15.0717 14.8571 15.0717 15.1429C14.9717 16.5714 15.6714 17.0476 16.7709 17.0476C17.7704 17.0476 18.9698 16.6667 20.1693 16L22.3682 8C21.8685 7.90476 20.769 7.80952 19.8694 7.80952ZM26.2664 6.47619L22.768 19.1429C22.6681 19.4286 22.3682 19.619 22.0684 19.619H19.8694C19.5695 19.619 19.4696 19.4286 19.4696 19.1429L19.6695 18.381C18.0703 19.4286 16.6709 19.8095 15.3715 19.8095C12.8727 19.8095 11.1735 18.2857 11.3734 15.2381C11.3734 15.0476 11.5733 14.381 11.6733 13.7143C11.8732 12.8571 12.0731 12 12.273 11.5238C13.3725 7.52381 16.1712 5.14286 20.4691 5.14286C22.1683 5.14286 24.1674 5.42857 25.7666 5.80952C26.3663 5.90476 26.3663 6 26.2664 6.47619Z" fill="white"/>
</svg>
